<mxfile host="Electron" modified="2023-10-21T17:27:10.143Z" agent="Mozilla/5.0 (Windows NT 10.0; Win64; x64) AppleWebKit/537.36 (KHTML, like Gecko) draw.io/22.0.2 Chrome/114.0.5735.289 Electron/25.8.4 Safari/537.36" etag="YXy63THIitAD1OqHjRQr" version="22.0.2" type="device">
  <diagram name="Page-1" id="2YBvvXClWsGukQMizWep">
    <mxGraphModel dx="523" dy="608" grid="1" gridSize="10" guides="1" tooltips="1" connect="1" arrows="1" fold="1" page="1" pageScale="1" pageWidth="850" pageHeight="1100" math="0" shadow="0">
      <root>
        <mxCell id="0" />
        <mxCell id="1" parent="0" />
        <mxCell id="24COpxV4JdFxxpJJWjUg-4" value="" style="rounded=0;whiteSpace=wrap;html=1;" parent="1" vertex="1">
          <mxGeometry x="185" y="464" width="10" height="96" as="geometry" />
        </mxCell>
        <mxCell id="aM9ryv3xv72pqoxQDRHE-7" value="name" style="html=1;verticalAlign=bottom;endArrow=block;edgeStyle=elbowEdgeStyle;elbow=vertical;curved=0;rounded=0;" parent="1" edge="1">
          <mxGeometry relative="1" as="geometry">
            <mxPoint x="200" y="484" as="sourcePoint" />
            <Array as="points">
              <mxPoint x="285" y="484" />
            </Array>
            <mxPoint x="390" y="484" as="targetPoint" />
          </mxGeometry>
        </mxCell>
        <mxCell id="aM9ryv3xv72pqoxQDRHE-8" value="accepted" style="html=1;verticalAlign=bottom;endArrow=open;dashed=1;endSize=8;edgeStyle=elbowEdgeStyle;elbow=vertical;curved=0;rounded=0;" parent="1" edge="1">
          <mxGeometry relative="1" as="geometry">
            <mxPoint x="199" y="629" as="targetPoint" />
            <Array as="points">
              <mxPoint x="294" y="629" />
            </Array>
            <mxPoint x="384" y="629" as="sourcePoint" />
          </mxGeometry>
        </mxCell>
        <mxCell id="24COpxV4JdFxxpJJWjUg-1" value="User" style="shape=umlActor;verticalLabelPosition=bottom;verticalAlign=top;html=1;outlineConnect=0;" parent="1" vertex="1">
          <mxGeometry x="170" y="374" width="40" height="60" as="geometry" />
        </mxCell>
        <mxCell id="24COpxV4JdFxxpJJWjUg-3" value="" style="endArrow=none;dashed=1;html=1;rounded=0;" parent="1" source="24COpxV4JdFxxpJJWjUg-4" edge="1">
          <mxGeometry width="50" height="50" relative="1" as="geometry">
            <mxPoint x="190" y="715.3809756324405" as="sourcePoint" />
            <mxPoint x="190" y="455" as="targetPoint" />
          </mxGeometry>
        </mxCell>
        <mxCell id="24COpxV4JdFxxpJJWjUg-5" value="" style="endArrow=none;dashed=1;html=1;rounded=0;" parent="1" source="RksnZsNHo38F9vfNEihc-18" target="24COpxV4JdFxxpJJWjUg-4" edge="1">
          <mxGeometry width="50" height="50" relative="1" as="geometry">
            <mxPoint x="190" y="790" as="sourcePoint" />
            <mxPoint x="190" y="455" as="targetPoint" />
          </mxGeometry>
        </mxCell>
        <mxCell id="24COpxV4JdFxxpJJWjUg-6" value=":System" style="rounded=0;whiteSpace=wrap;html=1;" parent="1" vertex="1">
          <mxGeometry x="350" y="414" width="100" height="40" as="geometry" />
        </mxCell>
        <mxCell id="24COpxV4JdFxxpJJWjUg-8" value="" style="endArrow=none;dashed=1;html=1;rounded=0;entryX=0.5;entryY=1;entryDx=0;entryDy=0;" parent="1" source="24COpxV4JdFxxpJJWjUg-7" target="24COpxV4JdFxxpJJWjUg-6" edge="1">
          <mxGeometry width="50" height="50" relative="1" as="geometry">
            <mxPoint x="400" y="725.3809756324405" as="sourcePoint" />
            <mxPoint x="400" y="465" as="targetPoint" />
          </mxGeometry>
        </mxCell>
        <mxCell id="24COpxV4JdFxxpJJWjUg-9" value="" style="endArrow=none;dashed=1;html=1;rounded=0;entryX=0.5;entryY=1;entryDx=0;entryDy=0;" parent="1" edge="1">
          <mxGeometry width="50" height="50" relative="1" as="geometry">
            <mxPoint x="400" y="912" as="sourcePoint" />
            <mxPoint x="400" y="1022" as="targetPoint" />
          </mxGeometry>
        </mxCell>
        <mxCell id="24COpxV4JdFxxpJJWjUg-7" value="" style="rounded=0;whiteSpace=wrap;html=1;" parent="1" vertex="1">
          <mxGeometry x="395" y="464" width="10" height="586" as="geometry" />
        </mxCell>
        <mxCell id="24COpxV4JdFxxpJJWjUg-10" value="email" style="html=1;verticalAlign=bottom;endArrow=block;edgeStyle=elbowEdgeStyle;elbow=vertical;curved=0;rounded=0;" parent="1" edge="1">
          <mxGeometry relative="1" as="geometry">
            <mxPoint x="200" y="503" as="sourcePoint" />
            <Array as="points">
              <mxPoint x="285" y="503" />
            </Array>
            <mxPoint x="390" y="503" as="targetPoint" />
          </mxGeometry>
        </mxCell>
        <mxCell id="24COpxV4JdFxxpJJWjUg-11" value="username" style="html=1;verticalAlign=bottom;endArrow=block;edgeStyle=elbowEdgeStyle;elbow=vertical;curved=0;rounded=0;" parent="1" edge="1">
          <mxGeometry relative="1" as="geometry">
            <mxPoint x="200" y="523" as="sourcePoint" />
            <Array as="points">
              <mxPoint x="285" y="523" />
            </Array>
            <mxPoint x="390" y="523" as="targetPoint" />
            <mxPoint as="offset" />
          </mxGeometry>
        </mxCell>
        <mxCell id="24COpxV4JdFxxpJJWjUg-12" value=":Database" style="rounded=0;whiteSpace=wrap;html=1;" parent="1" vertex="1">
          <mxGeometry x="560" y="414" width="100" height="40" as="geometry" />
        </mxCell>
        <mxCell id="24COpxV4JdFxxpJJWjUg-13" value="" style="endArrow=none;dashed=1;html=1;rounded=0;entryX=0.5;entryY=1;entryDx=0;entryDy=0;" parent="1" target="24COpxV4JdFxxpJJWjUg-12" edge="1" source="C2gJTqP2BcAbpwtu56J6-5">
          <mxGeometry width="50" height="50" relative="1" as="geometry">
            <mxPoint x="610" y="1080" as="sourcePoint" />
            <mxPoint x="610" y="465" as="targetPoint" />
          </mxGeometry>
        </mxCell>
        <mxCell id="RksnZsNHo38F9vfNEihc-3" value="redirect to next page" style="html=1;verticalAlign=bottom;endArrow=open;dashed=1;endSize=8;edgeStyle=elbowEdgeStyle;elbow=vertical;curved=0;rounded=0;" parent="1" edge="1">
          <mxGeometry relative="1" as="geometry">
            <mxPoint x="202" y="1029" as="targetPoint" />
            <Array as="points">
              <mxPoint x="297" y="1029" />
            </Array>
            <mxPoint x="387" y="1029" as="sourcePoint" />
          </mxGeometry>
        </mxCell>
        <mxCell id="RksnZsNHo38F9vfNEihc-8" value="password" style="html=1;verticalAlign=bottom;endArrow=block;edgeStyle=elbowEdgeStyle;elbow=vertical;curved=0;rounded=0;" parent="1" edge="1">
          <mxGeometry relative="1" as="geometry">
            <mxPoint x="201" y="543" as="sourcePoint" />
            <Array as="points">
              <mxPoint x="286" y="543" />
            </Array>
            <mxPoint x="391" y="543" as="targetPoint" />
            <mxPoint as="offset" />
          </mxGeometry>
        </mxCell>
        <mxCell id="RksnZsNHo38F9vfNEihc-9" value="generate OTP" style="html=1;verticalAlign=bottom;endArrow=open;dashed=1;endSize=8;edgeStyle=elbowEdgeStyle;elbow=vertical;curved=0;rounded=0;" parent="1" edge="1">
          <mxGeometry relative="1" as="geometry">
            <mxPoint x="201" y="739.5" as="targetPoint" />
            <Array as="points">
              <mxPoint x="296" y="739.5" />
            </Array>
            <mxPoint x="386" y="739.5" as="sourcePoint" />
          </mxGeometry>
        </mxCell>
        <mxCell id="RksnZsNHo38F9vfNEihc-13" value="validate info" style="rounded=0;orthogonalLoop=1;jettySize=auto;html=1;exitX=0.7;exitY=0.152;exitDx=0;exitDy=0;edgeStyle=elbowEdgeStyle;elbow=vertical;entryX=0.78;entryY=0.212;entryDx=0;entryDy=0;exitPerimeter=0;entryPerimeter=0;" parent="1" source="24COpxV4JdFxxpJJWjUg-7" target="24COpxV4JdFxxpJJWjUg-7" edge="1">
          <mxGeometry x="-0.0455" y="10" relative="1" as="geometry">
            <Array as="points">
              <mxPoint x="430" y="570" />
            </Array>
            <mxPoint as="offset" />
            <mxPoint x="420" y="543.5" as="sourcePoint" />
            <mxPoint x="435" y="590" as="targetPoint" />
          </mxGeometry>
        </mxCell>
        <mxCell id="RksnZsNHo38F9vfNEihc-14" value="send OTP" style="html=1;verticalAlign=bottom;endArrow=block;edgeStyle=elbowEdgeStyle;elbow=vertical;curved=0;rounded=0;" parent="1" edge="1">
          <mxGeometry relative="1" as="geometry">
            <mxPoint x="200" y="769" as="sourcePoint" />
            <Array as="points">
              <mxPoint x="285" y="769" />
            </Array>
            <mxPoint x="390" y="769" as="targetPoint" />
            <mxPoint as="offset" />
          </mxGeometry>
        </mxCell>
        <mxCell id="RksnZsNHo38F9vfNEihc-15" value="validate otp" style="rounded=0;orthogonalLoop=1;jettySize=auto;html=1;exitX=0.94;exitY=0.548;exitDx=0;exitDy=0;edgeStyle=elbowEdgeStyle;elbow=horizontal;entryX=0.86;entryY=0.605;entryDx=0;entryDy=0;exitPerimeter=0;entryPerimeter=0;" parent="1" source="24COpxV4JdFxxpJJWjUg-7" target="24COpxV4JdFxxpJJWjUg-7" edge="1">
          <mxGeometry x="-0.0236" y="10" relative="1" as="geometry">
            <Array as="points">
              <mxPoint x="430" y="854" />
            </Array>
            <mxPoint as="offset" />
            <mxPoint x="402.79999999999995" y="817.9159999999999" as="sourcePoint" />
            <mxPoint x="406" y="845.0920000000001" as="targetPoint" />
          </mxGeometry>
        </mxCell>
        <mxCell id="RksnZsNHo38F9vfNEihc-16" value="send register info" style="html=1;verticalAlign=bottom;endArrow=block;edgeStyle=elbowEdgeStyle;elbow=vertical;curved=0;rounded=0;" parent="1" edge="1">
          <mxGeometry relative="1" as="geometry">
            <mxPoint x="411" y="969" as="sourcePoint" />
            <Array as="points">
              <mxPoint x="496" y="969" />
            </Array>
            <mxPoint x="601" y="969" as="targetPoint" />
            <mxPoint as="offset" />
          </mxGeometry>
        </mxCell>
        <mxCell id="RksnZsNHo38F9vfNEihc-19" value="" style="endArrow=none;dashed=1;html=1;rounded=0;" parent="1" source="RksnZsNHo38F9vfNEihc-20" target="RksnZsNHo38F9vfNEihc-18" edge="1">
          <mxGeometry width="50" height="50" relative="1" as="geometry">
            <mxPoint x="190" y="954" as="sourcePoint" />
            <mxPoint x="190" y="724" as="targetPoint" />
          </mxGeometry>
        </mxCell>
        <mxCell id="RksnZsNHo38F9vfNEihc-18" value="" style="rounded=0;whiteSpace=wrap;html=1;" parent="1" vertex="1">
          <mxGeometry x="185" y="722" width="10" height="70" as="geometry" />
        </mxCell>
        <mxCell id="RksnZsNHo38F9vfNEihc-21" value="" style="endArrow=none;dashed=1;html=1;rounded=0;" parent="1" target="RksnZsNHo38F9vfNEihc-20" edge="1">
          <mxGeometry width="50" height="50" relative="1" as="geometry">
            <mxPoint x="190" y="912" as="sourcePoint" />
            <mxPoint x="190" y="806" as="targetPoint" />
          </mxGeometry>
        </mxCell>
        <mxCell id="RksnZsNHo38F9vfNEihc-20" value="" style="rounded=0;whiteSpace=wrap;html=1;" parent="1" vertex="1">
          <mxGeometry x="185" y="836" width="10" height="214" as="geometry" />
        </mxCell>
        <mxCell id="RksnZsNHo38F9vfNEihc-22" value="Alt" style="shape=umlFrame;whiteSpace=wrap;html=1;pointerEvents=0;movable=1;resizable=1;rotatable=1;deletable=1;editable=1;locked=0;connectable=1;" parent="1" vertex="1">
          <mxGeometry x="120" y="599" width="560" height="110" as="geometry" />
        </mxCell>
        <mxCell id="RksnZsNHo38F9vfNEihc-23" value="" style="endArrow=none;dashed=1;html=1;rounded=0;" parent="1" edge="1">
          <mxGeometry width="50" height="50" relative="1" as="geometry">
            <mxPoint x="120" y="660" as="sourcePoint" />
            <mxPoint x="680" y="660" as="targetPoint" />
          </mxGeometry>
        </mxCell>
        <mxCell id="RksnZsNHo38F9vfNEihc-24" value="rejected" style="html=1;verticalAlign=bottom;endArrow=open;dashed=1;endSize=8;edgeStyle=elbowEdgeStyle;elbow=vertical;curved=0;rounded=0;" parent="1" edge="1">
          <mxGeometry relative="1" as="geometry">
            <mxPoint x="200" y="690" as="targetPoint" />
            <Array as="points">
              <mxPoint x="295" y="690" />
            </Array>
            <mxPoint x="385" y="690" as="sourcePoint" />
          </mxGeometry>
        </mxCell>
        <mxCell id="RksnZsNHo38F9vfNEihc-27" value="accepted" style="html=1;verticalAlign=bottom;endArrow=open;dashed=1;endSize=8;edgeStyle=elbowEdgeStyle;elbow=vertical;curved=0;rounded=0;" parent="1" edge="1">
          <mxGeometry relative="1" as="geometry">
            <mxPoint x="199" y="862" as="targetPoint" />
            <Array as="points">
              <mxPoint x="294" y="862" />
            </Array>
            <mxPoint x="384" y="862" as="sourcePoint" />
          </mxGeometry>
        </mxCell>
        <mxCell id="RksnZsNHo38F9vfNEihc-28" value="Alt" style="shape=umlFrame;whiteSpace=wrap;html=1;pointerEvents=0;movable=1;resizable=1;rotatable=1;deletable=1;editable=1;locked=0;connectable=1;" parent="1" vertex="1">
          <mxGeometry x="120" y="832" width="560" height="110" as="geometry" />
        </mxCell>
        <mxCell id="RksnZsNHo38F9vfNEihc-29" value="" style="endArrow=none;dashed=1;html=1;rounded=0;" parent="1" edge="1">
          <mxGeometry width="50" height="50" relative="1" as="geometry">
            <mxPoint x="120" y="893" as="sourcePoint" />
            <mxPoint x="680" y="893" as="targetPoint" />
          </mxGeometry>
        </mxCell>
        <mxCell id="RksnZsNHo38F9vfNEihc-30" value="rejected" style="html=1;verticalAlign=bottom;endArrow=open;dashed=1;endSize=8;edgeStyle=elbowEdgeStyle;elbow=vertical;curved=0;rounded=0;" parent="1" edge="1">
          <mxGeometry relative="1" as="geometry">
            <mxPoint x="200" y="923" as="targetPoint" />
            <Array as="points">
              <mxPoint x="295" y="923" />
            </Array>
            <mxPoint x="385" y="923" as="sourcePoint" />
          </mxGeometry>
        </mxCell>
        <mxCell id="RksnZsNHo38F9vfNEihc-33" value="success" style="html=1;verticalAlign=bottom;endArrow=open;dashed=1;endSize=8;edgeStyle=elbowEdgeStyle;elbow=vertical;curved=0;rounded=0;" parent="1" edge="1">
          <mxGeometry relative="1" as="geometry">
            <mxPoint x="414" y="1000" as="targetPoint" />
            <Array as="points">
              <mxPoint x="509" y="1000" />
            </Array>
            <mxPoint x="599" y="1000" as="sourcePoint" />
          </mxGeometry>
        </mxCell>
        <mxCell id="RksnZsNHo38F9vfNEihc-34" value="" style="endArrow=none;dashed=1;html=1;rounded=0;entryX=0.5;entryY=1;entryDx=0;entryDy=0;" parent="1" target="RksnZsNHo38F9vfNEihc-20" edge="1" source="C2gJTqP2BcAbpwtu56J6-1">
          <mxGeometry width="50" height="50" relative="1" as="geometry">
            <mxPoint x="190" y="1080" as="sourcePoint" />
            <mxPoint x="76" y="802" as="targetPoint" />
          </mxGeometry>
        </mxCell>
        <mxCell id="RksnZsNHo38F9vfNEihc-35" value="" style="endArrow=none;dashed=1;html=1;rounded=0;entryX=0.5;entryY=1;entryDx=0;entryDy=0;" parent="1" target="24COpxV4JdFxxpJJWjUg-7" edge="1" source="C2gJTqP2BcAbpwtu56J6-2">
          <mxGeometry width="50" height="50" relative="1" as="geometry">
            <mxPoint x="400" y="1080" as="sourcePoint" />
            <mxPoint x="200" y="1060" as="targetPoint" />
          </mxGeometry>
        </mxCell>
        <mxCell id="C2gJTqP2BcAbpwtu56J6-1" value="" style="shape=umlDestroy;whiteSpace=wrap;html=1;strokeWidth=3;targetShapes=umlLifeline;" vertex="1" parent="1">
          <mxGeometry x="175" y="1065" width="30" height="30" as="geometry" />
        </mxCell>
        <mxCell id="C2gJTqP2BcAbpwtu56J6-2" value="" style="shape=umlDestroy;whiteSpace=wrap;html=1;strokeWidth=3;targetShapes=umlLifeline;" vertex="1" parent="1">
          <mxGeometry x="385" y="1065" width="30" height="30" as="geometry" />
        </mxCell>
        <mxCell id="C2gJTqP2BcAbpwtu56J6-5" value="" style="shape=umlDestroy;whiteSpace=wrap;html=1;strokeWidth=3;targetShapes=umlLifeline;" vertex="1" parent="1">
          <mxGeometry x="595" y="1065" width="30" height="30" as="geometry" />
        </mxCell>
      </root>
    </mxGraphModel>
  </diagram>
</mxfile>
